<mxfile host="Electron" modified="2023-05-19T20:09:05.834Z" agent="Mozilla/5.0 (Windows NT 10.0; Win64; x64) AppleWebKit/537.36 (KHTML, like Gecko) draw.io/21.2.8 Chrome/112.0.5615.165 Electron/24.2.0 Safari/537.36" etag="ww0r4_0D3M-BWr_dY6yJ" version="21.2.8" type="device">
  <diagram name="Страница 1" id="6JzYVkxqM44aQ8ZSRlQD">
    <mxGraphModel dx="864" dy="526" grid="1" gridSize="10" guides="1" tooltips="1" connect="1" arrows="1" fold="1" page="1" pageScale="1" pageWidth="827" pageHeight="1169" math="0" shadow="0">
      <root>
        <mxCell id="0" />
        <mxCell id="1" parent="0" />
        <mxCell id="ipS4lVi2P51K0KYmvrVy-2" value="Сущность Категории" style="swimlane;fontStyle=1;align=center;verticalAlign=top;childLayout=stackLayout;horizontal=1;startSize=26;horizontalStack=0;resizeParent=1;resizeParentMax=0;resizeLast=0;collapsible=1;marginBottom=0;whiteSpace=wrap;html=1;" vertex="1" parent="1">
          <mxGeometry x="20" y="160" width="160" height="120" as="geometry">
            <mxRectangle x="90" y="160" width="160" height="30" as="alternateBounds" />
          </mxGeometry>
        </mxCell>
        <mxCell id="ipS4lVi2P51K0KYmvrVy-3" value="id&lt;br&gt;Название" style="text;strokeColor=none;fillColor=none;align=left;verticalAlign=top;spacingLeft=4;spacingRight=4;overflow=hidden;rotatable=0;points=[[0,0.5],[1,0.5]];portConstraint=eastwest;whiteSpace=wrap;html=1;" vertex="1" parent="ipS4lVi2P51K0KYmvrVy-2">
          <mxGeometry y="26" width="160" height="34" as="geometry" />
        </mxCell>
        <mxCell id="ipS4lVi2P51K0KYmvrVy-4" value="" style="line;strokeWidth=1;fillColor=none;align=left;verticalAlign=middle;spacingTop=-1;spacingLeft=3;spacingRight=3;rotatable=0;labelPosition=right;points=[];portConstraint=eastwest;strokeColor=inherit;" vertex="1" parent="ipS4lVi2P51K0KYmvrVy-2">
          <mxGeometry y="60" width="160" height="8" as="geometry" />
        </mxCell>
        <mxCell id="ipS4lVi2P51K0KYmvrVy-5" value="AddКатегории()&lt;br&gt;DeleteКатегории()&lt;br&gt;GetInfoКатегори()" style="text;strokeColor=none;fillColor=none;align=left;verticalAlign=top;spacingLeft=4;spacingRight=4;overflow=hidden;rotatable=0;points=[[0,0.5],[1,0.5]];portConstraint=eastwest;whiteSpace=wrap;html=1;" vertex="1" parent="ipS4lVi2P51K0KYmvrVy-2">
          <mxGeometry y="68" width="160" height="52" as="geometry" />
        </mxCell>
        <mxCell id="ipS4lVi2P51K0KYmvrVy-6" value="Сущность Блюда&lt;br&gt;" style="swimlane;fontStyle=1;align=center;verticalAlign=top;childLayout=stackLayout;horizontal=1;startSize=26;horizontalStack=0;resizeParent=1;resizeParentMax=0;resizeLast=0;collapsible=1;marginBottom=0;whiteSpace=wrap;html=1;" vertex="1" parent="1">
          <mxGeometry x="210" y="160" width="160" height="170" as="geometry">
            <mxRectangle x="90" y="160" width="160" height="30" as="alternateBounds" />
          </mxGeometry>
        </mxCell>
        <mxCell id="ipS4lVi2P51K0KYmvrVy-7" value="id&lt;br&gt;Название&lt;br&gt;Категории&lt;br&gt;Описание&lt;br&gt;Ингридиенты" style="text;strokeColor=none;fillColor=none;align=left;verticalAlign=top;spacingLeft=4;spacingRight=4;overflow=hidden;rotatable=0;points=[[0,0.5],[1,0.5]];portConstraint=eastwest;whiteSpace=wrap;html=1;" vertex="1" parent="ipS4lVi2P51K0KYmvrVy-6">
          <mxGeometry y="26" width="160" height="84" as="geometry" />
        </mxCell>
        <mxCell id="ipS4lVi2P51K0KYmvrVy-8" value="" style="line;strokeWidth=1;fillColor=none;align=left;verticalAlign=middle;spacingTop=-1;spacingLeft=3;spacingRight=3;rotatable=0;labelPosition=right;points=[];portConstraint=eastwest;strokeColor=inherit;" vertex="1" parent="ipS4lVi2P51K0KYmvrVy-6">
          <mxGeometry y="110" width="160" height="8" as="geometry" />
        </mxCell>
        <mxCell id="ipS4lVi2P51K0KYmvrVy-9" value="AddБлюда()&lt;br&gt;DeleteБлюда()&lt;br&gt;GetInfoБлюда()" style="text;strokeColor=none;fillColor=none;align=left;verticalAlign=top;spacingLeft=4;spacingRight=4;overflow=hidden;rotatable=0;points=[[0,0.5],[1,0.5]];portConstraint=eastwest;whiteSpace=wrap;html=1;" vertex="1" parent="ipS4lVi2P51K0KYmvrVy-6">
          <mxGeometry y="118" width="160" height="52" as="geometry" />
        </mxCell>
        <mxCell id="ipS4lVi2P51K0KYmvrVy-10" value="Сущность Рецепты" style="swimlane;fontStyle=1;align=center;verticalAlign=top;childLayout=stackLayout;horizontal=1;startSize=26;horizontalStack=0;resizeParent=1;resizeParentMax=0;resizeLast=0;collapsible=1;marginBottom=0;whiteSpace=wrap;html=1;" vertex="1" parent="1">
          <mxGeometry x="410" y="160" width="160" height="170" as="geometry">
            <mxRectangle x="90" y="160" width="160" height="30" as="alternateBounds" />
          </mxGeometry>
        </mxCell>
        <mxCell id="ipS4lVi2P51K0KYmvrVy-11" value="id&lt;br&gt;Блюдо&lt;br&gt;Посуда&lt;br&gt;Время приготовления&lt;br&gt;Рецепт" style="text;strokeColor=none;fillColor=none;align=left;verticalAlign=top;spacingLeft=4;spacingRight=4;overflow=hidden;rotatable=0;points=[[0,0.5],[1,0.5]];portConstraint=eastwest;whiteSpace=wrap;html=1;" vertex="1" parent="ipS4lVi2P51K0KYmvrVy-10">
          <mxGeometry y="26" width="160" height="84" as="geometry" />
        </mxCell>
        <mxCell id="ipS4lVi2P51K0KYmvrVy-12" value="" style="line;strokeWidth=1;fillColor=none;align=left;verticalAlign=middle;spacingTop=-1;spacingLeft=3;spacingRight=3;rotatable=0;labelPosition=right;points=[];portConstraint=eastwest;strokeColor=inherit;" vertex="1" parent="ipS4lVi2P51K0KYmvrVy-10">
          <mxGeometry y="110" width="160" height="8" as="geometry" />
        </mxCell>
        <mxCell id="ipS4lVi2P51K0KYmvrVy-13" value="AddРецепты()&lt;br&gt;DeleteРецепты()&lt;br&gt;GetInfoРецепты()" style="text;strokeColor=none;fillColor=none;align=left;verticalAlign=top;spacingLeft=4;spacingRight=4;overflow=hidden;rotatable=0;points=[[0,0.5],[1,0.5]];portConstraint=eastwest;whiteSpace=wrap;html=1;" vertex="1" parent="ipS4lVi2P51K0KYmvrVy-10">
          <mxGeometry y="118" width="160" height="52" as="geometry" />
        </mxCell>
        <mxCell id="ipS4lVi2P51K0KYmvrVy-19" value="Сущность Ингридиенты" style="swimlane;fontStyle=1;align=center;verticalAlign=top;childLayout=stackLayout;horizontal=1;startSize=26;horizontalStack=0;resizeParent=1;resizeParentMax=0;resizeLast=0;collapsible=1;marginBottom=0;whiteSpace=wrap;html=1;" vertex="1" parent="1">
          <mxGeometry x="600" y="160" width="160" height="120" as="geometry">
            <mxRectangle x="90" y="160" width="160" height="30" as="alternateBounds" />
          </mxGeometry>
        </mxCell>
        <mxCell id="ipS4lVi2P51K0KYmvrVy-20" value="id&lt;br&gt;Название" style="text;strokeColor=none;fillColor=none;align=left;verticalAlign=top;spacingLeft=4;spacingRight=4;overflow=hidden;rotatable=0;points=[[0,0.5],[1,0.5]];portConstraint=eastwest;whiteSpace=wrap;html=1;" vertex="1" parent="ipS4lVi2P51K0KYmvrVy-19">
          <mxGeometry y="26" width="160" height="34" as="geometry" />
        </mxCell>
        <mxCell id="ipS4lVi2P51K0KYmvrVy-21" value="" style="line;strokeWidth=1;fillColor=none;align=left;verticalAlign=middle;spacingTop=-1;spacingLeft=3;spacingRight=3;rotatable=0;labelPosition=right;points=[];portConstraint=eastwest;strokeColor=inherit;" vertex="1" parent="ipS4lVi2P51K0KYmvrVy-19">
          <mxGeometry y="60" width="160" height="8" as="geometry" />
        </mxCell>
        <mxCell id="ipS4lVi2P51K0KYmvrVy-22" value="AddИнгридиенты()&lt;br&gt;DeleteИнгридиенты()&lt;br&gt;GetInfoИнгридиенты()" style="text;strokeColor=none;fillColor=none;align=left;verticalAlign=top;spacingLeft=4;spacingRight=4;overflow=hidden;rotatable=0;points=[[0,0.5],[1,0.5]];portConstraint=eastwest;whiteSpace=wrap;html=1;" vertex="1" parent="ipS4lVi2P51K0KYmvrVy-19">
          <mxGeometry y="68" width="160" height="52" as="geometry" />
        </mxCell>
        <mxCell id="ipS4lVi2P51K0KYmvrVy-23" value="Сущность Советы" style="swimlane;fontStyle=1;align=center;verticalAlign=top;childLayout=stackLayout;horizontal=1;startSize=26;horizontalStack=0;resizeParent=1;resizeParentMax=0;resizeLast=0;collapsible=1;marginBottom=0;whiteSpace=wrap;html=1;" vertex="1" parent="1">
          <mxGeometry x="300" y="350" width="160" height="120" as="geometry">
            <mxRectangle x="90" y="160" width="160" height="30" as="alternateBounds" />
          </mxGeometry>
        </mxCell>
        <mxCell id="ipS4lVi2P51K0KYmvrVy-24" value="id&lt;br&gt;Совет" style="text;strokeColor=none;fillColor=none;align=left;verticalAlign=top;spacingLeft=4;spacingRight=4;overflow=hidden;rotatable=0;points=[[0,0.5],[1,0.5]];portConstraint=eastwest;whiteSpace=wrap;html=1;" vertex="1" parent="ipS4lVi2P51K0KYmvrVy-23">
          <mxGeometry y="26" width="160" height="34" as="geometry" />
        </mxCell>
        <mxCell id="ipS4lVi2P51K0KYmvrVy-25" value="" style="line;strokeWidth=1;fillColor=none;align=left;verticalAlign=middle;spacingTop=-1;spacingLeft=3;spacingRight=3;rotatable=0;labelPosition=right;points=[];portConstraint=eastwest;strokeColor=inherit;" vertex="1" parent="ipS4lVi2P51K0KYmvrVy-23">
          <mxGeometry y="60" width="160" height="8" as="geometry" />
        </mxCell>
        <mxCell id="ipS4lVi2P51K0KYmvrVy-26" value="AddСоветы()&lt;br&gt;DeleteСоветы()&lt;br&gt;GetInfoСоветы()" style="text;strokeColor=none;fillColor=none;align=left;verticalAlign=top;spacingLeft=4;spacingRight=4;overflow=hidden;rotatable=0;points=[[0,0.5],[1,0.5]];portConstraint=eastwest;whiteSpace=wrap;html=1;" vertex="1" parent="ipS4lVi2P51K0KYmvrVy-23">
          <mxGeometry y="68" width="160" height="52" as="geometry" />
        </mxCell>
        <mxCell id="ipS4lVi2P51K0KYmvrVy-27" value="" style="line;strokeWidth=1;fillColor=none;align=left;verticalAlign=middle;spacingTop=-1;spacingLeft=3;spacingRight=3;rotatable=0;labelPosition=right;points=[];portConstraint=eastwest;strokeColor=inherit;" vertex="1" parent="1">
          <mxGeometry x="180" y="230" width="30" height="8" as="geometry" />
        </mxCell>
        <mxCell id="ipS4lVi2P51K0KYmvrVy-29" value="&lt;font style=&quot;font-size: 8px;&quot;&gt;1&lt;/font&gt;" style="text;html=1;align=center;verticalAlign=middle;resizable=0;points=[];autosize=1;strokeColor=none;fillColor=none;" vertex="1" parent="1">
          <mxGeometry x="169.5" y="212" width="30" height="30" as="geometry" />
        </mxCell>
        <mxCell id="ipS4lVi2P51K0KYmvrVy-32" value="∞&lt;span lang=&quot;ru&quot; class=&quot;ILfuVd&quot;&gt;&lt;/span&gt;&lt;span lang=&quot;ru&quot; class=&quot;ILfuVd&quot;&gt;&lt;/span&gt;&lt;span lang=&quot;ru&quot; class=&quot;ILfuVd&quot;&gt;&lt;/span&gt;&lt;span lang=&quot;ru&quot; class=&quot;ILfuVd&quot;&gt;&lt;/span&gt;&lt;span lang=&quot;ru&quot; class=&quot;ILfuVd&quot;&gt;&lt;/span&gt;&lt;span lang=&quot;ru&quot; class=&quot;ILfuVd&quot;&gt;&lt;/span&gt;&lt;span lang=&quot;ru&quot; class=&quot;ILfuVd&quot;&gt;&lt;/span&gt;" style="text;html=1;align=center;verticalAlign=middle;resizable=0;points=[];autosize=1;strokeColor=none;fillColor=none;" vertex="1" parent="1">
          <mxGeometry x="188.5" y="213" width="30" height="30" as="geometry" />
        </mxCell>
        <mxCell id="ipS4lVi2P51K0KYmvrVy-33" value="&lt;font style=&quot;font-size: 8px;&quot;&gt;1&lt;/font&gt;" style="text;html=1;align=center;verticalAlign=middle;resizable=0;points=[];autosize=1;strokeColor=none;fillColor=none;" vertex="1" parent="1">
          <mxGeometry x="361.5" y="221" width="30" height="30" as="geometry" />
        </mxCell>
        <mxCell id="ipS4lVi2P51K0KYmvrVy-34" value="∞&lt;span lang=&quot;ru&quot; class=&quot;ILfuVd&quot;&gt;&lt;/span&gt;&lt;span lang=&quot;ru&quot; class=&quot;ILfuVd&quot;&gt;&lt;/span&gt;&lt;span lang=&quot;ru&quot; class=&quot;ILfuVd&quot;&gt;&lt;/span&gt;&lt;span lang=&quot;ru&quot; class=&quot;ILfuVd&quot;&gt;&lt;/span&gt;&lt;span lang=&quot;ru&quot; class=&quot;ILfuVd&quot;&gt;&lt;/span&gt;&lt;span lang=&quot;ru&quot; class=&quot;ILfuVd&quot;&gt;&lt;/span&gt;&lt;span lang=&quot;ru&quot; class=&quot;ILfuVd&quot;&gt;&lt;/span&gt;" style="text;html=1;align=center;verticalAlign=middle;resizable=0;points=[];autosize=1;strokeColor=none;fillColor=none;" vertex="1" parent="1">
          <mxGeometry x="386.5" y="222" width="30" height="30" as="geometry" />
        </mxCell>
        <mxCell id="ipS4lVi2P51K0KYmvrVy-35" value="" style="line;strokeWidth=1;fillColor=none;align=left;verticalAlign=middle;spacingTop=-1;spacingLeft=3;spacingRight=3;rotatable=0;labelPosition=right;points=[];portConstraint=eastwest;strokeColor=inherit;" vertex="1" parent="1">
          <mxGeometry x="370" y="238" width="40" height="8" as="geometry" />
        </mxCell>
        <mxCell id="ipS4lVi2P51K0KYmvrVy-36" value="&lt;font style=&quot;font-size: 8px;&quot;&gt;1&lt;/font&gt;" style="text;html=1;align=center;verticalAlign=middle;resizable=0;points=[];autosize=1;strokeColor=none;fillColor=none;" vertex="1" parent="1">
          <mxGeometry x="580" y="199" width="30" height="30" as="geometry" />
        </mxCell>
        <mxCell id="ipS4lVi2P51K0KYmvrVy-37" value="∞&lt;span lang=&quot;ru&quot; class=&quot;ILfuVd&quot;&gt;&lt;/span&gt;&lt;span lang=&quot;ru&quot; class=&quot;ILfuVd&quot;&gt;&lt;/span&gt;&lt;span lang=&quot;ru&quot; class=&quot;ILfuVd&quot;&gt;&lt;/span&gt;&lt;span lang=&quot;ru&quot; class=&quot;ILfuVd&quot;&gt;&lt;/span&gt;&lt;span lang=&quot;ru&quot; class=&quot;ILfuVd&quot;&gt;&lt;/span&gt;&lt;span lang=&quot;ru&quot; class=&quot;ILfuVd&quot;&gt;&lt;/span&gt;&lt;span lang=&quot;ru&quot; class=&quot;ILfuVd&quot;&gt;&lt;/span&gt;" style="text;html=1;align=center;verticalAlign=middle;resizable=0;points=[];autosize=1;strokeColor=none;fillColor=none;" vertex="1" parent="1">
          <mxGeometry x="560" y="200" width="30" height="30" as="geometry" />
        </mxCell>
        <mxCell id="ipS4lVi2P51K0KYmvrVy-38" value="" style="line;strokeWidth=1;fillColor=none;align=left;verticalAlign=middle;spacingTop=-1;spacingLeft=3;spacingRight=3;rotatable=0;labelPosition=right;points=[];portConstraint=eastwest;strokeColor=inherit;" vertex="1" parent="1">
          <mxGeometry x="570" y="216" width="30" height="8" as="geometry" />
        </mxCell>
      </root>
    </mxGraphModel>
  </diagram>
</mxfile>
